<svg xmlns="http://www.w3.org/2000/svg" width="29.926" height="18.6" viewBox="0 0 29.926 18.6">
  <g id="Handshake" transform="translate(0 -5.8)">
    <g id="Group_29" data-name="Group 29">
      <path id="Path_23" data-name="Path 23" d="M6.9,6.9C5.8,5.8,1.4,5.8.5,5.8a.472.472,0,0,0-.5.5v11a.472.472,0,0,0,.5.5h4a.664.664,0,0,0,.5-.4A87.182,87.182,0,0,0,7,7.3C7,7.1,7,7,6.9,6.9Z" fill="#fff"/>
    </g>
    <g id="Group_30" data-name="Group 30">
      <path id="Path_24" data-name="Path 24" d="M10.3,12.5q0,.15.3.3A1.714,1.714,0,0,0,13,12a.52.52,0,0,1,.4-.2c.3,0,.4-.1.7-.3a9.666,9.666,0,0,1,1.2-.7h.2c.1,0,.3.1.4.1a43.643,43.643,0,0,0,3.4,2.9c1.5,1.2,3.1,2.4,4.2,3.5L23.2,16a61.193,61.193,0,0,0-2.6-6.3c-.8-.4-2-.9-3.3-1.4a4.834,4.834,0,0,0-2.1-.6c-1,0-1.9.5-3.3,2A4.107,4.107,0,0,0,10.3,12.5Z" fill="#fff"/>
    </g>
    <g id="Group_31" data-name="Group 31">
      <path id="Path_25" data-name="Path 25" d="M29.5,6.8a32.96,32.96,0,0,0-8.2,1,.451.451,0,0,0-.3.3c-.1.1,0,.3,0,.4a72.828,72.828,0,0,1,3.9,9.9.664.664,0,0,0,.5.4h4a.472.472,0,0,0,.5-.5V7.3C30,7,29.8,6.8,29.5,6.8Z" fill="#fff"/>
    </g>
    <g id="Group_32" data-name="Group 32">
      <path id="Path_26" data-name="Path 26" d="M18.7,14.6c-1.3-1-2.5-2-3.3-2.7a1.538,1.538,0,0,0-.6.4,2.344,2.344,0,0,1-1,.5,2.7,2.7,0,0,1-3.4,1,1.4,1.4,0,0,1-1-1c-.3-1.2.9-2.9,1.8-3.8a12.667,12.667,0,0,1,1.3-1.1H8a100.766,100.766,0,0,1-2,9.9c0,.1-.1.1-.1.2l1.3,1.3c2.5,2.1,5.7,4.3,6,4.5a3.226,3.226,0,0,0,1.8.6h0a2.876,2.876,0,0,0,1.5-.3l-2.4-2.4a.495.495,0,0,1,.7-.7l2.5,2.5a.817.817,0,0,0,1.2,0h0a.853.853,0,0,0,0-1.3l-3-3a.483.483,0,0,1,0-.7.44.44,0,0,1,.5-.1l4.2,4.2a.967.967,0,0,0,1.4,0,.967.967,0,0,0,0-1.4L17,16.4a.9.9,0,0,1,.1-.5.483.483,0,0,1,.7,0,6.125,6.125,0,0,0,.4.6L22.7,21a.967.967,0,0,0,1.4,0,.967.967,0,0,0,0-1.4C24.2,19.5,18.7,14.6,18.7,14.6Z" fill="#fff"/>
    </g>
  </g>
</svg>
