<svg id="Networking-1" xmlns="http://www.w3.org/2000/svg" width="30" height="30" viewBox="0 0 30 30">
  <g id="Group_1" data-name="Group 1">
    <path id="Path_1" data-name="Path 1" d="M20.5,11H9.5a.472.472,0,0,1-.5-.5C9,7.6,11.8,5,15,5s6,2.6,6,5.5A.472.472,0,0,1,20.5,11ZM10,10H20a4.994,4.994,0,0,0-5-4A4.994,4.994,0,0,0,10,10Z" fill="#fff"/>
  </g>
  <g id="Group_2" data-name="Group 2">
    <path id="Path_2" data-name="Path 2" d="M11.5,30H.5a.472.472,0,0,1-.5-.5C0,26.6,2.8,24,6,24s6,2.6,6,5.5A.472.472,0,0,1,11.5,30ZM1,29H11a4.994,4.994,0,0,0-5-4A4.994,4.994,0,0,0,1,29Z" fill="#fff"/>
  </g>
  <g id="Group_3" data-name="Group 3">
    <path id="Path_3" data-name="Path 3" d="M29.5,30h-11a.472.472,0,0,1-.5-.5c0-2.9,2.8-5.5,6-5.5s6,2.6,6,5.5A.472.472,0,0,1,29.5,30ZM19,29H29a5.125,5.125,0,0,0-10,0Z" fill="#fff"/>
  </g>
  <g id="Group_4" data-name="Group 4">
    <path id="Path_4" data-name="Path 4" d="M5.5,17a.472.472,0,0,1-.5-.5V6.5A.472.472,0,0,1,5.5,6h2a.5.5,0,0,1,0,1H6v9.5A.472.472,0,0,1,5.5,17Z" fill="#fff"/>
  </g>
  <g id="Group_5" data-name="Group 5">
    <path id="Path_5" data-name="Path 5" d="M24.5,17a.472.472,0,0,1-.5-.5V7H22.5a.5.5,0,0,1,0-1h2a.472.472,0,0,1,.5.5v10A.472.472,0,0,1,24.5,17Z" fill="#fff"/>
  </g>
  <g id="Group_6" data-name="Group 6">
    <path id="Path_6" data-name="Path 6" d="M15,6a2.946,2.946,0,0,1-3-3,3,3,0,0,1,6,0A2.946,2.946,0,0,1,15,6Zm0-5a2,2,0,1,0,2,2A2.006,2.006,0,0,0,15,1Z" fill="#fff"/>
  </g>
  <g id="Group_7" data-name="Group 7">
    <path id="Path_7" data-name="Path 7" d="M6,25a3,3,0,0,1,0-6,3,3,0,0,1,0,6Zm0-5a2,2,0,1,0,2,2A2.006,2.006,0,0,0,6,20Z" fill="#fff"/>
  </g>
  <g id="Group_8" data-name="Group 8">
    <path id="Path_8" data-name="Path 8" d="M24,25a3,3,0,1,1,3-3A2.946,2.946,0,0,1,24,25Zm0-5a2,2,0,1,0,2,2A2.006,2.006,0,0,0,24,20Z" fill="#fff"/>
  </g>
</svg>
