<svg xmlns="http://www.w3.org/2000/svg" width="28.1" height="29" viewBox="0 0 28.1 29">
  <g id="Addvertise" transform="translate(-1 -0.5)">
    <path id="Path_14" data-name="Path 14" d="M23.5.5c-1.1,0-2.1.8-3,2.3L12.4,8.5H5.5A4.251,4.251,0,0,0,1,13a4.7,4.7,0,0,0,4.2,5L7,20.2V25a2.73,2.73,0,0,0,1.2,2.4l3,2a.367.367,0,0,0,.3.1c.1,0,.3-.1.4-.1l.5-.5a3.812,3.812,0,0,0,1.1-2.4V26a3.84,3.84,0,0,0-1.1-2.3c-.1-.1,0-.6.1-.8l.5-4,8.3,5.5c.1,0,.1.1.2.1a2.989,2.989,0,0,0,2.1,1c2.9,0,5.5-6,5.5-12.5S26.4.5,23.5.5Zm-11,10h-7A2.266,2.266,0,0,0,3,13a.472.472,0,0,1-.5.5A.472.472,0,0,1,2,13,3.307,3.307,0,0,1,5.5,9.5h7a.5.5,0,0,1,0,1Zm11,14C21.7,24.5,19,19.9,19,13a.5.5,0,0,1,1,0c0,6.8,2.6,10.5,3.5,10.5a.5.5,0,0,1,0,1Zm-1-8a.5.5,0,0,1,0-1A2.61,2.61,0,0,0,25,13a2.61,2.61,0,0,0-2.5-2.5.5.5,0,0,1,0-1A3.61,3.61,0,0,1,26,13,3.61,3.61,0,0,1,22.5,16.5Z" fill="#fff"/>
  </g>
</svg>
