<svg xmlns="http://www.w3.org/2000/svg" width="29" height="19" viewBox="0 0 29 19">
  <g id="Contact-Info" transform="translate(-0.5 -5.5)">
    <g id="Group_26" data-name="Group 26">
      <path id="Path_21" data-name="Path 21" d="M8,14c-2.5,0-4.2,1.4-4.5,3.5h8.9C12.2,15.4,10.5,14,8,14Z" fill="#fff"/>
    </g>
    <g id="Group_27" data-name="Group 27">
      <circle id="Ellipse_5" data-name="Ellipse 5" cx="2" cy="2" r="2" transform="translate(6 9)" fill="#fff"/>
    </g>
    <g id="Group_28" data-name="Group 28">
      <path id="Path_22" data-name="Path 22" d="M29,5.5H1A.472.472,0,0,0,.5,6V24a.472.472,0,0,0,.5.5H5a.472.472,0,0,0,.5-.5c0-.1,0-.1.1-.2a.446.446,0,0,0,0-.5.31.31,0,0,1-.1-.2.5.5,0,0,1,1,0c0,.1,0,.1-.1.2a.446.446,0,0,0,0,.5.31.31,0,0,1,.1.2.472.472,0,0,0,.5.5h4a.472.472,0,0,0,.5-.5c0-.1,0-.1.1-.2a.446.446,0,0,0,0-.5.31.31,0,0,1-.1-.2.5.5,0,0,1,1,0c0,.1,0,.1-.1.2a.446.446,0,0,0,0,.5.31.31,0,0,1,.1.2.472.472,0,0,0,.5.5h4a.472.472,0,0,0,.5-.5c0-.1,0-.1.1-.2a.446.446,0,0,0,0-.5.31.31,0,0,1-.1-.2.5.5,0,0,1,1,0c0,.1,0,.1-.1.2a.446.446,0,0,0,0,.5.31.31,0,0,1,.1.2.472.472,0,0,0,.5.5h4a.472.472,0,0,0,.5-.5c0-.1,0-.1.1-.2a.446.446,0,0,0,0-.5.31.31,0,0,1-.1-.2.5.5,0,0,1,1,0c0,.1,0,.1-.1.2a.446.446,0,0,0,0,.5.31.31,0,0,1,.1.2.472.472,0,0,0,.5.5h4a.472.472,0,0,0,.5-.5V6A.472.472,0,0,0,29,5.5Zm-16,13H3a.472.472,0,0,1-.5-.5,4.806,4.806,0,0,1,3.6-4.7A2.99,2.99,0,0,1,5,11,2.946,2.946,0,0,1,8,8a2.946,2.946,0,0,1,3,3,2.99,2.99,0,0,1-1.1,2.3A4.806,4.806,0,0,1,13.5,18,.472.472,0,0,1,13,18.5Zm14,0H17a.5.5,0,0,1,0-1H27a.5.5,0,0,1,0,1ZM16.5,14a.472.472,0,0,1,.5-.5h6a.5.5,0,0,1,0,1H17A.472.472,0,0,1,16.5,14ZM27,10.5H17a.5.5,0,0,1,0-1H27a.5.5,0,0,1,0,1Z" fill="#fff"/>
    </g>
  </g>
</svg>
